<?xml version="1.0" encoding="utf-8"?>
<!-- Generator: Adobe Illustrator 24.2.3, SVG Export Plug-In . SVG Version: 6.00 Build 0)  -->
<svg version="1.1" id="Layer_1" xmlns="http://www.w3.org/2000/svg" xmlns:xlink="http://www.w3.org/1999/xlink" x="0px" y="0px" width="192" height="88"
	 viewBox="0 0 192 88" style="enable-background:new 0 0 192 88;" xml:space="preserve">
<style type="text/css">
	.st0{fill:#E5E5E5;}
</style>
<g id="Martian_1_">
	<path class="st0" d="M88,88V32c0-6.7-1.7-12.2-4.9-16.2l5.3-5.3c1.6,1,3.5,1.5,5.7,1.5c1.1,0,2-0.9,2-2s-0.9-2-2-2
		c-3.8,0-6-2.2-6-6c0-1.1-0.9-2-2-2s-2,0.9-2,2c0,2.2,0.5,4.1,1.5,5.7L80.3,13C76.2,9.7,70.7,8,64,8H40c-6.7,0-12.2,1.7-16.2,4.9
		l-5.3-5.3C19.5,6.1,20,4.2,20,2c0-1.1-0.9-2-2-2s-2,0.9-2,2c0,3.8-2.2,6-6,6c-1.1,0-2,0.9-2,2s0.9,2,2,2c2.2,0,4.1-0.5,5.7-1.5
		l5.3,5.3c-3.2,4-4.9,9.5-4.9,16.2v56H88z M64,40c5.5,0,10,4.5,10,10s-4.5,10-10,10s-10-4.5-10-10S58.5,40,64,40z M40,40
		c5.5,0,10,4.5,10,10s-4.5,10-10,10s-10-4.5-10-10S34.5,40,40,40z"/>
	<path class="st0" d="M40,56c3.3,0,6-2.7,6-6s-2.7-6-6-6s-6,2.7-6,6S36.7,56,40,56z M40,46c2.2,0,4,1.8,4,4s-1.8,4-4,4s-4-1.8-4-4
		S37.8,46,40,46z"/>
	<path class="st0" d="M64,56c3.3,0,6-2.7,6-6s-2.7-6-6-6s-6,2.7-6,6S60.7,56,64,56z M64,46c2.2,0,4,1.8,4,4s-1.8,4-4,4s-4-1.8-4-4
		S61.8,46,64,46z"/>
</g>
<g id="Human_3_">
	<path class="st0" d="M152,56c3.3,0,6-2.7,6-6s-2.7-6-6-6s-6,2.7-6,6S148.7,56,152,56z M152,46c2.2,0,4,1.8,4,4s-1.8,4-4,4
		s-4-1.8-4-4S149.8,46,152,46z"/>
	<path class="st0" d="M128,56c3.3,0,6-2.7,6-6s-2.7-6-6-6s-6,2.7-6,6S124.7,56,128,56z M128,46c2.2,0,4,1.8,4,4s-1.8,4-4,4
		s-4-1.8-4-4S125.8,46,128,46z"/>
	<path class="st0" d="M176,88V63.8c4.6-0.9,8-5,8-9.8s-3.4-8.9-8-9.8V32c0-15.3-8.7-24-24-24h-24c-15.3,0-24,8.7-24,24v12.2
		c-4.6,0.9-8,5-8,9.8s3.4,8.9,8,9.8V88H176z M176,48.3c2.3,0.8,4,3,4,5.7s-1.7,4.8-4,5.7V48.3z M104,59.7c-2.3-0.8-4-3-4-5.7
		s1.7-4.8,4-5.7V59.7z M128,60c-5.5,0-10-4.5-10-10s4.5-10,10-10s10,4.5,10,10S133.5,60,128,60z M152,60c-5.5,0-10-4.5-10-10
		s4.5-10,10-10s10,4.5,10,10S157.5,60,152,60z M110,30v-2.4l5.9,6l6.1-6l6,6l6-6l6,6l6-6l6,6l6-6l6,6l6-6v2.8l-5.9,6l-6.1-6l-6,6
		l-6-6l-6,6l-6-6l-6,6l-6-6.1l-6,5.9L110,30L110,30z"/>
</g>
</svg>
